# xmcd
#
# Track frame offsets:
#	150
#	21238
#	42528
#	63066
#	82080
#	100359
#	124467
#	147140
#	164211
#	181873
#	198666
#	217587
#
# Disc length: 2918 seconds
#
# Revision: 0
# Processed by: cddbd v1.5.1PL0 Copyright (c) Steve Scherf et al.
# Submitted via: audiograbber 1.83.01
#
DISCID=b00b640c
DTITLE=Paulina Rubio - Paulina
DYEAR=2000
DGENRE=Latin
TTITLE0=Lo Haré Por Ti
TTITLE1=El Ultimo Adiós
TTITLE2=Tal Vez, Quizá
TTITLE3=Y Yo Sigo Aquí
TTITLE4=Sin Aire
TTITLE5=Tan Sola
TTITLE6=Sexi Dance
TTITLE7=Cancún Y Yo
TTITLE8=Mírame A Los Ojos
TTITLE9=Yo No Soy Esa Mujer
TTITLE10=Vive El Verano
TTITLE11=Baby Paulina
EXTD=YEAR: 2000
EXTT0=
EXTT1=
EXTT2=
EXTT3=
EXTT4=
EXTT5=
EXTT6=
EXTT7=
EXTT8=
EXTT9=
EXTT10=
EXTT11=
PLAYORDER=
